<svg width="322" height="570" viewBox="0 0 322 570" fill="none" xmlns="http://www.w3.org/2000/svg">
<path d="M141.005 188.622C141.968 189.453 142.873 190.362 143.893 191.115C145.472 192.275 147.148 193.493 149.063 191.763C151.133 189.898 149.035 188.545 148.284 187.182C142.911 177.402 138.974 167.033 135.72 156.402C134.641 152.865 134.564 149.125 135.72 144.361C137.27 162.848 146.117 177.103 155.215 191.309C152.038 178.977 149.843 166.714 153.271 154.151C153.068 160.8 152.231 167.419 153.54 174.107C154.599 179.499 155.841 184.737 158.036 189.82C159.894 194.131 163.408 195.358 167.346 196.431C169.397 196.991 169.888 195.648 170.485 194.333C175.086 184.196 181.498 175.054 186.639 165.274C192.762 153.61 194.553 140.544 192.281 127.256C192.031 125.777 191.8 124.047 189.691 122.743C187.207 129.633 185.118 136.62 180.545 142.351C182.086 132.59 191.058 123.97 184.589 112.683C187.756 114.21 189.672 112.654 191.886 110.325C195.959 106.053 201.186 103.193 207.107 102.738C214.28 102.178 221.038 100.699 227.277 97.0367C227.922 96.6598 228.644 96.1283 229.77 96.9111C227.161 100.467 223.137 101.695 219.44 103.202C216.494 104.401 213.288 104.98 210.159 105.667C205.596 106.672 201.109 107.822 197.22 110.615C190.933 115.118 190.866 115.505 194.033 122.598C195.14 125.082 196.44 127.7 196.623 130.329C196.97 135.19 199.415 135.113 203.093 134.311C226.073 129.324 245.492 108.054 249.613 83.0433C250.152 79.7962 251.413 76.5297 249.95 72.2003C244.751 77.9214 239.119 82.3668 232.033 84.2513C225.217 86.0584 218.323 87.6047 211.459 89.1992C206.896 90.2622 202.496 91.7698 198.52 94.2825C194.832 96.6115 191.443 99.1628 190.25 103.85C189.759 105.783 188.228 107.474 187.073 109.213C186.572 109.967 185.927 111.088 184.82 110.528C183.722 109.977 184.242 108.904 184.55 107.986C185.388 105.483 188.594 102.874 186.793 100.69C185.426 99.0275 181.739 99.385 179.14 98.6312C177.58 98.177 175.558 98.3703 174.653 96.0606C177.801 95.0846 180.699 96.1379 183.607 96.5342C187.005 97.0077 188.469 95.7031 187.881 92.2144C187.564 90.3106 187.227 88.3971 187.15 86.4836C186.87 80.0184 186.572 79.6415 180.276 79.5546C176.608 79.5063 172.94 79.5449 169.271 79.5256C169.194 79.5256 169.127 79.2936 168.752 78.6365C173.055 77.0613 177.359 76.5491 181.768 76.9066C187.227 77.3512 187.901 76.3848 186.177 71.031C185.503 68.9339 182.432 66.2473 184.955 64.7011C187.564 63.1065 187.929 67.0784 189.21 68.6536C190.086 69.736 190.943 70.2482 191.915 69.0305C196.999 62.662 204.633 59.2699 210.044 53.2493C213.818 49.0454 217.495 44.8319 220.23 39.855C220.749 38.8983 220.952 37.468 222.319 37.4777C223.898 37.4777 224.321 38.9562 224.687 40.1546C227.383 48.8425 227.45 57.5497 224.88 66.3053C223.176 72.1326 220.682 77.6218 216.927 83.6038C230.117 82.0285 240.958 78.5688 248.323 68.0641C248.785 67.407 249.199 66.7112 249.699 66.083C250.672 64.875 251.432 62.9712 253.377 63.638C255.052 64.2179 254.677 66.054 254.715 67.4553C254.783 70.0259 254.879 72.6255 254.686 75.1865C252.616 102.197 236.625 127.642 212.816 135.49C209.177 136.688 205.355 137.374 201.581 138.089C199.174 138.543 198.058 139.645 197.759 142.177C197.278 146.284 196.382 150.343 195.535 155.088C201.552 150.788 207.242 147.038 214.001 145.965C228.769 143.627 241.785 146.719 251.134 159.456C256.843 167.245 261.936 175.411 265.431 184.525C267.404 189.666 267.202 194.536 265.171 199.533C263.053 204.761 261.387 210.037 261.3 215.855C261.214 221.451 257.931 225.326 252.905 227.732C252.626 227.307 252.279 226.901 252.328 226.843C256.901 221.789 258.605 216.019 257.652 209.148C257.189 205.795 259.279 202.654 260.626 199.562C262.648 194.923 263.12 190.159 261.252 185.462C257.295 175.518 251.644 166.54 244.847 158.326C243.268 156.422 240.977 153.552 238.628 154.779C235.942 156.19 236.654 160.142 237.934 162.21C244.24 172.367 245.02 182.737 241.4 194.044C239.696 199.378 243.971 203.36 246.965 207.312C251.095 212.772 252.732 218.725 250.739 225.451C250.556 226.06 250.373 226.698 249.42 226.746C248.159 225.075 248.987 223.113 248.919 221.306C248.794 218.01 247.899 215.005 246.387 212.086C244.808 209.042 243.239 208.172 240.11 210.511C236.028 213.574 231.272 215.275 225.939 215.092C230.955 212.135 236.818 210.685 241.112 206.095C238.83 205.37 237.501 207.931 234.911 206.897C239.523 204.519 238.724 201.214 237.424 197.368C236.384 194.285 237.424 190.99 238.599 187.936C241.083 181.509 240.746 175.421 236.933 169.497C233.997 164.936 232.12 160.026 234.035 154.412C235.027 151.493 232.428 151.667 230.935 151.425C218.718 149.425 207.666 151.715 198.404 160.519C189.171 169.304 183.145 180.33 176.896 191.212C175.212 194.14 173.585 197.097 171.948 200.055C170.985 201.794 171.101 203.563 172.439 204.974C173.729 206.336 175.404 205.94 176.916 205.244C181.903 202.963 185.58 199.146 188.526 194.662C192.05 189.289 195.14 183.616 198.693 178.262C202.419 172.638 207.319 168.695 214.732 169.004C203.073 170.821 199.482 180.379 195.198 189.163C191.732 196.276 187.198 202.335 180.247 206.346C179.438 206.81 178.543 207.283 178.331 208.907C181.315 209.564 183.819 208.308 186.158 206.877C188.526 205.428 190.712 203.669 193.205 202.384C189.98 207.834 184.502 210.347 179.255 213.371C190.288 215.063 199.559 210.685 208.677 205.476C200.484 213.439 190.539 217.266 178.081 217.972C183.665 222.05 189.143 219.672 194.784 220.745C191.675 223.18 188.565 222.842 185.734 223.412C184.685 223.625 183.27 223.374 183.164 224.939C183.077 226.089 184.165 226.514 185.041 226.872C198.414 232.265 211.536 238.585 226.516 237.918C232.861 237.638 238.647 235.647 244.154 232.593C245.665 231.752 246.724 230.167 249.382 229.81C247.389 232.893 244.703 234.178 242.219 235.608C239.898 236.942 239.321 238.334 241.256 240.508C244.991 244.712 247.937 250.017 252.433 253.042C259.548 257.826 268.068 258.415 276.396 256.154C280.988 254.907 285.35 252.781 290.808 250.674C288.353 254.675 284.512 255.284 280.806 257.768C285.59 260.677 290.038 260.947 294.351 259.217C300.012 256.946 304.691 253.071 306.819 247.157C307.955 244.006 308.831 241.793 312.904 244.161C312.769 240.798 311.44 238.701 309.553 236.923C307.762 235.231 306.039 235.038 304.171 237.039C302.333 239.01 300.503 241.126 297.134 241.552C297.914 237.976 304.884 236.903 300.937 231.859C299.03 229.423 297.615 231.83 295.67 232.467C295.353 230.361 294.929 228.418 292.618 227.626C291.531 227.249 290.943 225.973 291.579 224.785C292.262 223.509 293.177 224.669 294.024 224.736C300.946 225.326 305.461 230.718 311.296 233.492C313.549 234.565 315.522 236.807 315.85 239.464C316.244 242.624 317.38 244.789 321.751 245.408C318.69 246.905 316.283 248.133 314.444 247.331C310.41 245.581 309.505 248.026 308.253 250.781C306.443 254.743 303.103 257.314 299.608 259.633C297.702 260.899 296.826 262.31 298.308 264.397C298.847 265.151 299.502 266.224 300.234 266.349C301.389 266.543 301.399 265.132 301.813 264.32C302.496 262.957 302.679 261.14 304.942 260.87C305.577 263.769 302.814 266.388 304.441 269.538C308.552 267.403 310.179 262.996 313.809 258.831C313.019 265.035 310.035 268.64 306.559 272.457C312.509 274.206 316.726 269.925 321.982 268.63C319.701 273.568 312.73 276.825 307.146 275.356C304.037 274.535 301.659 275.105 298.944 276.323C294.544 278.304 289.73 278.623 283.809 278.951C292.224 286.16 301.524 290.055 309.515 295.998C302.852 293.863 296.662 290.722 290.731 287.127C284.734 283.484 278.947 279.502 272.449 275.26C272.661 280.884 272.487 285.88 271.467 291.36C269.185 289.379 269.878 287.156 269.975 285.32C270.408 277.395 268.001 270.969 261.705 265.779C253.136 258.715 245.723 250.442 238.868 241.687C237.588 240.054 236.423 238.131 233.775 239.532C249.844 254.936 252.356 273.936 248.159 294.491C246.647 301.903 242.719 308.185 235.884 312.456C249.526 293.64 248.419 273.936 239.706 253.979C237.328 248.539 232.986 244.296 226.382 242.054C226.603 246.422 228.182 249.756 230.001 252.858C235.73 262.638 236.269 272.148 229.78 281.889C226.545 286.76 227.412 292.055 229.847 297.11C231.667 300.879 233.698 304.57 234.257 308.803C234.459 310.32 235.017 312.649 233.053 312.91C231.08 313.171 231.629 310.794 231.542 309.528C231.34 306.484 229.876 304.657 227.258 303.092C223.744 300.975 220.249 298.608 217.803 293.93C222.136 295.467 223.965 299.332 228.076 300.54C226.988 297.825 225.756 295.457 225.111 292.945C223.859 288.055 224.851 283.319 227.084 278.893C231.292 270.563 230.781 262.464 226.208 254.472C225.496 253.216 224.562 251.911 224.389 250.549C223.368 242.131 217.929 240.373 210.515 239.899C201.62 239.329 193.513 235.444 185.513 231.646C184.435 231.134 183.26 229.897 182.134 231.385C181.518 232.187 181.614 233.415 182.384 234.072C188.757 239.484 192.002 248.345 201.909 251.071C197.258 252.114 194.524 250.52 192.069 248.075C188.315 244.335 184.647 240.489 180.786 236.855C178.851 235.038 176.752 233.25 173.325 232.545C174.191 236.072 176.338 238.256 178.042 240.605C184.29 249.186 190.856 257.545 193.783 268.06C194.813 271.761 197.865 274.032 200.503 276.593C195.872 275.569 193.513 272.061 191.684 268.195C187.968 260.358 184.829 252.201 178.658 245.794C177.455 244.547 176.473 242.334 174.518 243.262C172.246 244.345 173.883 246.49 174.461 247.882C176.242 252.182 178.398 256.328 180.333 260.57C181.104 262.261 182.528 263.73 182.317 266.833C176.887 259.459 172.776 252.288 170.908 244.2C169.339 237.435 165.863 231.762 161.993 225.906C162.224 230.38 162.397 234.864 162.734 239.339C162.831 240.614 163.572 242.141 162.474 243.001C157.555 246.847 156.12 253.361 151.239 257.275C147.513 260.271 144.76 264.214 142.911 268.794C142.411 263.624 144.471 259.411 148.139 256.347C154.522 251.032 157.651 244.441 157.824 236.207C157.863 234.574 158.152 233.028 156.679 231.404C154.686 235.019 152.683 238.449 151.615 242.296C149.15 251.119 144.048 257.99 136.037 262.261C123.002 269.21 116.397 280.729 112.354 294.278C111.873 295.882 111.853 297.738 109.283 299.738C110.948 290.374 113.798 282.739 118.207 275.646C121.847 269.799 126.564 265.112 132.6 261.73C135.248 260.242 137.713 258.396 140.148 256.569C141.438 255.603 142.546 254.675 140.553 252.839C137.867 250.375 138.714 248.084 141.872 246.403C144.683 244.905 146.002 242.199 146.917 239.155C139.494 243.697 131.387 247.186 125.746 255.951C125.207 251.931 126.968 250.626 128.249 249.157C132.215 244.596 137.52 241.784 142.286 238.256C146.743 234.961 151.278 231.617 153.338 225.171C149.015 226.534 145.636 228.09 142.757 230.631C141.554 231.694 140.331 232.236 138.878 231.202C137.886 230.506 137.337 229.52 137.616 228.283C137.973 226.679 139.099 225.625 140.659 225.654C145.492 225.741 148.274 222.485 151.21 219.421C135.392 225.075 121.664 234.4 108.339 244.345C95.1208 254.202 83.2694 265.596 72.0919 277.743C81.0551 263.286 93.5804 252.192 106.568 241.126C92.8487 240.324 81.3054 246.654 74.1522 259.304C67.4226 271.21 62.7821 284.121 56.8131 297.332C67.721 293.727 77.4833 289.707 85.5318 282.314C90.1241 278.101 94.3217 273.762 97.4699 268.099C105.104 254.356 115.685 243.185 129.818 235.918C132.369 234.603 136.095 231.057 138.127 234.603C139.609 237.193 134.776 238.536 132.552 239.938C115.569 250.597 101.417 263.769 94.1388 283.049C91.5297 289.958 89.3347 297.013 90.8751 304.696C92.0881 310.717 94.7742 315.481 100.108 318.709C103.121 320.535 106.009 322.574 108.888 324.623C110.255 325.599 111.68 326.672 111.603 329.88C106.192 324.478 99.9152 321.83 94.8127 317.52C87.5536 311.403 86.225 303.159 87.3514 294.249C87.6306 292.046 88.1216 289.871 88.7185 286.528C76.7708 295.882 61.1455 295.506 50.9596 306.329C50.4975 305.566 50.1413 305.237 50.2087 305.073C56.6206 289.282 63.2346 273.578 70.9173 258.357C73.0257 254.182 75.9236 250.5 79.2258 247.157C80.0634 246.306 81.6327 245.543 80.9684 244.064C80.3715 242.721 78.7541 243.059 77.5218 242.837C75.6348 242.499 73.7286 242.189 71.8705 241.735C61.8579 239.29 56.0814 232.931 54.7432 222.678C53.7708 215.217 52.9814 207.737 52.6733 200.045C55.1668 202.287 55.7733 205.418 56.274 208.53C56.6783 211.062 56.7553 213.652 57.1019 216.203C58.0518 223.11 61.8098 227.307 68.3757 228.795C67.1337 230.738 64.6595 229.559 62.0793 231.897C71.1388 233.936 79.274 232.815 87.3803 232.525C81.7675 235.415 75.6444 234.903 68.7512 235.396C73.0931 238.334 77.1848 238.527 81.2283 238.749C99.3761 239.744 115.011 232.419 130.213 223.731C134.709 221.161 139.07 218.348 143.22 215.159C138.261 215.063 135.046 220.813 128.653 218.609C133.457 216.599 137.655 215.188 141.41 211.216C133.168 212.463 125.659 217.343 118.217 211.439C123.647 213.526 128.759 212.56 134.93 209.834C120.672 205.979 109.851 196.914 96.6515 192.981C89.7294 190.922 82.8361 191.386 75.8081 192.285C80.2463 189.231 85.166 189.144 90.1915 189.84C100.551 191.26 109.745 195.88 118.949 200.48C125.418 203.717 132.09 206.317 140.379 206.616C132.754 199.059 126.391 191.212 115.3 190.033C119.161 188.1 122.636 189.492 126.063 190.729C131.099 192.546 134.276 196.798 138.021 200.277C140.543 202.616 142.911 202.751 144.943 200.064C146.262 198.325 146.801 196.324 143.807 195.116C132.292 190.458 122.646 182.882 113.933 174.31C95.6021 156.296 66.8931 164.288 56.0525 182.35C51.932 189.221 52.1823 190.043 59.8169 191.666C61.2899 191.975 63.0036 191.753 64.2551 193.01C64.0433 193.174 63.9182 193.348 63.793 193.357C59.1141 193.725 53.3665 194.44 50.9211 190.333C48.8993 186.931 52.4326 182.466 54.5121 178.9C58.1898 172.599 63.6775 168.183 70.1183 164.974C72.3422 163.863 73.4879 162.877 71.9667 160.249C65.757 149.522 67.3648 138.514 71.3987 127.633C73.5167 121.921 76.2702 116.461 78.783 110.798C77.0404 109.861 76.1258 111.417 75.0283 112.045C64.4092 118.133 53.2606 122.366 40.8123 121.999C32.7541 121.757 25.235 119.708 18.9772 114.364C14.9337 110.914 10.4665 108.073 6.20156 104.961C-3.30075 98.0321 -1.60631 82.5987 9.38824 76.839C9.85999 79.6995 7.80934 81.3327 6.60591 83.2075C0.781296 92.224 1.59 96.3989 10.428 102.429C13.7399 104.691 17.1191 106.894 20.1999 109.455C32.6867 119.834 46.2999 119.573 60.4812 113.949C69.8102 110.247 77.801 104.13 86.0902 98.6796C90.5092 95.7707 93.6959 90.9291 97.3158 86.8509C98.6829 85.3046 97.9224 83.3718 97.1618 81.8353C96.2761 80.0474 94.5913 80.9655 93.3204 81.439C89.171 82.9756 84.5498 83.7681 82.3066 88.4164C81.6905 89.7017 80.1982 90.5328 79.0814 89.8757C75.3075 87.624 73.0931 90.4555 70.5226 92.166C58.3824 100.264 45.1446 101.366 31.2715 98.4283C30.2702 98.2157 28.9705 98.119 28.4506 95.5388C38.8579 98.5249 48.8608 98.2447 58.6905 94.814C68.6453 91.3446 76.2028 84.3962 83.7315 77.0516C74.5276 78.3659 67.153 87.508 55.523 83.1786C62.811 83.3525 68.1543 81.0815 73.2568 78.1243C74.0944 77.6411 74.855 77.0033 75.7407 76.6554C78.0705 75.7373 77.8972 72.6352 80.0634 71.6978C82.0756 70.828 84.5787 72.4516 87.0337 70.0646C78.6867 65.6578 68.1543 69.0595 61.0011 62.1691C64.9868 63.2321 68.9726 64.2275 73.0546 64.5658C76.5013 64.8557 80.0827 65.6288 83.0961 62.7973C84.4439 61.5313 85.9843 62.3044 87.5728 62.9036C91.289 64.3145 95.1208 65.4259 99.0873 66.7208C98.009 61.8985 93.4456 57.6657 89.0266 58.2262C78.1764 59.5985 68.4527 55.8585 58.6231 52.3698C51.2196 49.7509 43.739 48.6492 35.9408 50.408C29.5674 51.848 24.4552 55.2014 20.3058 60.1493C19.6126 60.9804 18.4669 61.8115 19.1024 63.0485C19.7281 64.2662 21.0952 63.8023 22.1639 63.8216C26.1208 63.87 30.0873 63.841 34.1116 64.0922C27.1509 66.6628 18.5054 63.7733 12.8541 70.5767C12.6038 60.2266 24.59 44.0202 49.217 44.8996C48.9956 42.8895 47.2338 42.0584 46.0689 40.889C42.1409 36.9461 39.2045 32.3848 37.1923 27.2242C34.564 20.4787 32.1572 13.6367 28.2773 7.45172C27.6034 6.37902 27.2376 5.09372 26.891 3.85673C26.554 2.64873 26.0341 1.09284 27.8152 0.667621C29.2112 0.339046 29.5674 1.78864 30.0103 2.78403C32.3497 8.07988 35.1609 13.2211 36.9131 18.7102C43.0362 37.9512 57.1501 47.2866 75.8081 51.2778C78.783 51.9156 81.7675 52.5728 84.7712 53.056C87.7558 53.5392 88.68 52.4568 87.1877 49.5866C85.2045 45.7693 82.3355 42.8122 78.8118 40.4445C77.1174 39.3042 75.3748 38.2218 73.3146 36.8978C78.446 36.6562 85.4837 41.4979 89.1999 47.0933C90.2493 48.6685 90.567 52.4471 92.6369 51.3551C94.8608 50.1858 92.2518 47.3929 91.6067 45.4311C89.2095 38.2218 84.5113 33.0419 77.618 29.6885C70.9558 26.4511 64.0818 23.8128 57.1501 21.2712C55.2535 20.5754 53.068 20.3628 51.4987 18.3334C52.9621 17.077 54.2426 18.1014 55.4075 18.546C63.2154 21.4935 70.9655 24.5859 78.7926 27.4851C87.8328 30.8385 92.6754 37.9415 96.0546 46.5715C97.0848 39.9903 95.2074 33.9696 93.0894 28.0166C92.2807 25.7456 91.2024 23.5712 90.3167 21.3292C89.9893 20.5077 89.1806 19.4834 90.23 18.7489C91.1928 18.0821 91.4142 20.2758 92.8294 19.5317C92.2325 14.3325 91.4912 9.12359 89.1614 4.25295C88.603 3.08361 86.9952 1.49872 88.7955 0.484006C90.6055 -0.540375 92.5887 0.0877832 93.7152 2.11722C94.4757 3.4895 95.14 4.91977 95.891 6.42734C96.7093 5.45128 96.1413 4.68783 96.045 3.95337C95.7658 1.97226 95.9776 0.329382 98.4711 0.213415C100.801 0.107111 101.59 1.53738 101.552 3.58614C101.398 11.0177 103.035 18.3333 103.285 25.6876C103.603 35.081 107.771 44.3391 103.66 54.148C107.906 54.032 109.312 51.7417 110.188 48.8425C111.911 43.1697 111.199 37.3327 111.208 31.5633C111.228 23.1363 111.901 14.835 114.886 6.88155C115.704 4.68783 116.426 2.37814 118.361 0.696613C119.401 1.99158 118.525 2.81302 118.13 3.57647C114.78 10.0707 114.125 17.0384 114.058 24.209C113.971 34.4045 115.492 44.7063 112.181 54.7955C118.958 46.4748 120.152 36.0377 123.599 26.4511C122.983 33.4961 121.673 40.3479 119.228 46.9483C118.554 48.7555 117.755 50.524 117.042 52.3118C116.503 53.6551 115.743 55.1047 117.428 56.1678C119.189 57.2791 120.152 55.8489 120.913 54.6795C122.819 51.7127 124.59 48.6492 126.381 45.6051C126.92 44.687 126.901 43.392 129.154 42.5512C127.681 48.6009 124.937 53.2493 121.779 57.743C119.161 61.4733 120.133 63.9763 124.494 65.1939C125.486 65.4742 126.4 65.6095 127.199 64.8943C135.354 57.6367 145.155 52.4955 152.606 44.3004C160.087 36.0764 162.561 27.3112 157.67 16.9031C155.687 12.6896 153.704 8.41812 153.598 3.61513C153.579 2.55209 153.377 1.00586 154.859 0.899556C156.323 0.793253 156.409 2.29117 156.477 3.39286C156.727 7.674 158.315 11.5009 160.183 15.2892C165.825 26.7217 164.198 36.9945 155.446 46.3299C151.422 50.6207 146.945 54.4089 142.642 58.5741C145.492 57.2115 148.303 55.7619 151.191 54.4959C157.651 51.6644 164.304 50.1954 171.322 52.2152C174.547 53.143 177.156 54.8535 178.581 58.0329C178.909 58.7577 179.265 59.5695 178.668 60.2943C178.013 61.0964 177.224 60.6712 176.492 60.3523C176.348 60.2846 176.194 60.217 176.068 60.1203C166.345 52.5148 157.035 56.1581 147.841 61.2414C142.623 64.1309 137.202 66.4986 131.532 68.3347C130.386 68.7019 128.509 68.5666 128.384 70.0742C128.21 72.094 130.425 71.6494 131.58 72.2679C137.289 75.3121 143.017 78.4142 150.912 74.7612C146.743 79.0037 142.546 79.4579 137.01 77.3125C134.632 76.3945 132.485 74.8096 129.799 74.7902C127.633 74.7806 125.823 75.9982 125.178 77.7281C124.436 79.7479 127.055 79.2647 127.999 80.1441C129.876 81.8836 131.888 83.4781 133.814 85.1693C137.202 88.1168 140.543 91.103 144.529 93.3064C148.351 95.4325 152.558 96.4472 156.842 97.8871C152.645 99.2304 144.731 97.0463 140.081 93.4997C135.46 89.9723 131.551 85.4303 125.409 82.5214C127.074 87.9526 129.25 92.0501 132.957 95.3068C126.94 94.3598 126.112 88.3971 122.53 84.3576C121.481 86.8412 122.492 88.7353 122.934 90.5812C123.685 93.7123 124.648 96.7951 126.314 99.588C127.796 102.072 128.788 105.522 130.983 106.701C133.284 107.938 135.412 104.41 137.809 103.28C149.564 97.7421 172.102 101.482 181.97 110.982C180.073 111.61 178.851 110.441 177.58 109.822C168.617 105.473 159.307 103.038 149.237 103.589C141.256 104.033 138.059 106.449 135.97 114.239C135.421 116.287 135.797 118.713 133.862 120.839C132.35 116.722 134.661 113.291 134.564 109.271C130.078 112.306 127.565 116.674 124.003 120.607C123.599 117.988 124.995 116.568 126.006 115.389C129.626 111.156 128.153 107.628 124.706 104.546C121.606 101.772 118.169 99.3754 114.828 96.8724C112.527 95.1425 112.575 97.4619 112.132 98.6119C110.197 103.628 108.609 108.798 104.999 114.412C104.681 110.711 106.009 108.682 106.76 106.517C107.348 104.845 107.954 103.183 108.474 101.492C109.803 97.1172 108.147 94.276 103.506 92.9682H103.487C101.87 89.837 100.531 89.5181 98.1149 92.6396C88.8533 104.584 79.0333 116.133 73.7286 130.6C70.3589 139.79 69.5117 149.048 73.5649 158.345C74.8261 161.234 76.328 162.607 79.8131 161.718C93.5034 158.21 105.249 161.988 115.878 171.159C123.618 177.837 131.561 184.447 141.063 188.651L141.015 188.612L141.005 188.622ZM208.465 68.7696C200.994 75.1575 197.037 83.3815 194.101 93.7219C200.195 89.4215 205.76 87.0635 211.652 85.4689C212.942 85.121 214.01 84.4059 214.511 83.1109C217.649 75.0705 222.444 67.6679 223.368 58.7867C223.898 53.6841 223.724 48.7845 221.327 42.9861C215.098 53.8967 206.645 61.3863 197.807 68.6053C191.328 73.8915 190.789 81.3907 191.376 90.127C193.87 85.3046 195.603 81.1588 198.038 77.4768C200.551 73.6692 203.536 70.0839 208.474 68.7792L208.465 68.7696ZM258.836 258.898C262.09 264.001 266.23 266.079 269.195 269.336C277.369 278.342 287.304 277.366 297.567 274.225C298.472 273.945 300.301 273.713 299.367 272.128C297.75 269.384 295.901 266.736 293.899 264.252C292.416 262.416 290.289 263.866 288.45 263.74C286.043 263.576 283.54 263.325 281.547 261.962C274.654 257.275 267.115 260.677 258.845 258.898H258.836ZM97.518 32.868C97.7491 36.2407 98.8947 39.4491 98.7696 42.8412C98.6444 46.3685 98.4326 49.8959 98.346 53.4329C98.2593 56.9312 99.145 60.0623 101.754 62.6233C105.076 65.8897 108.407 69.1465 111.468 72.6448C112.816 74.1911 115.531 75.6407 114.116 78.2789C112.72 80.8882 110.111 81.5164 107.126 81.555C104.816 81.584 101.456 78.8781 100.339 82.2122C99.3761 85.092 103.477 85.7395 105.172 87.4597C108.474 90.7938 114.202 88.629 114.857 83.9227C115.396 80.0571 117.264 77.4961 120.595 75.602C124.523 73.3696 124.542 70.3931 120.778 67.9481C119.18 66.9141 117.062 66.4019 116.407 64.4015C115.637 62.0435 114.684 59.6661 111.892 61.454C109.504 62.9809 108.022 58.893 105.865 61.1157C103.766 63.2804 102.582 61.8405 101.571 59.8304C100.252 57.1922 99.6938 54.6119 100.108 51.5194C100.974 45.1315 100.541 38.7726 97.4988 32.868H97.518ZM176.434 224.031C175.818 220.764 171.158 220.088 172.93 216.638C174.759 213.082 173.835 210.878 170.465 209.235C168.954 208.491 167.972 207.071 167.413 205.602C165.757 201.292 162.657 199.871 158.296 200.315C156.525 200.499 154.773 200.19 153.386 198.827C150.315 195.822 149.67 198.354 149.294 200.779C148.986 202.751 149.92 205.176 147.08 205.988C143.104 207.119 144.856 209.593 145.877 211.642C147.109 214.125 148.919 215.382 151.634 213.256C153.145 212.067 154.801 211.071 156.409 210.008C158.104 208.887 159.683 208.868 161.136 210.463C163.707 213.294 166.922 215.517 168.424 219.305C169.772 222.688 172.795 223.625 176.434 224.05V224.031Z" fill="#CB6EE6"/>
<path d="M141.708 424.075C140.399 426.8 138.444 426.945 137.029 427.873C135.989 428.559 133.582 428.308 134.507 430.521C135.334 432.492 137.096 432.637 138.974 431.69C144.327 428.984 149.121 425.544 152.991 420.896C154.763 418.77 156.476 416.595 158.566 414.769C155.697 425.515 145.193 429.516 138.011 437.112C135.094 434.532 131.195 431.671 128.037 428.134C123.05 422.568 124.273 412.652 130.367 405.588C134.545 400.756 139.85 397.441 145.463 394.59C151.614 391.469 157.843 388.483 163.957 385.294C166.47 383.989 168.963 382.53 171.178 379.795C153.174 383.757 136.22 389.613 118.149 390.705C131.503 381.302 146.512 375.349 162.291 368.469C155.215 369.203 149.294 370.537 143.19 370.537C135.325 370.537 128.672 368.121 123.57 362.071C121.644 359.781 120.903 359.868 119.372 362.554C114.116 371.774 108.464 380.761 101.764 389.024C100.81 390.203 100.368 391.45 100.079 392.918C97.3445 406.777 89.1419 415.841 75.8753 420.364C70.2721 422.268 64.3801 423.457 59.4797 427.1C58.9117 427.525 57.7757 427.873 57.3135 427.583C56.2064 426.907 56.9862 425.882 57.4098 425.07C61.9155 416.363 65.5546 407.192 71.6007 399.335C77.7911 391.305 85.5412 386.473 95.9967 387.7C99.3952 388.096 101.475 387.004 103.082 384.202C106.414 378.394 110.727 373.146 113.682 365.995C104.103 370.392 95.1687 368.15 86.2633 366.265C82.5952 365.482 78.9368 365.415 75.2591 365.85C72.0436 366.227 71.851 364.758 73.2759 362.535C78.9561 353.663 85.6086 345.729 94.3311 339.612C100.839 335.051 108.657 334.877 115.868 332.731C118.756 331.871 118.746 329.117 121.076 327.89C121.875 329.726 120.614 330.953 120.113 332.287C119.661 333.485 118.814 334.741 120.508 335.601C122.106 336.413 122.848 335.109 123.589 334.094C126.824 329.658 129.625 324.981 131.628 319.84C131.907 319.124 132.157 318.293 133.987 317.936C132.023 324.237 129.452 329.687 125.871 334.712C125.149 335.717 123.55 336.568 124.118 337.911C124.744 339.409 126.545 339.206 127.96 339.322C139.426 340.26 154.349 330.856 159.23 319.598C165.699 304.657 165.305 289.176 162.503 273.597C161.502 268.012 160.761 262.474 161.165 256.811C161.28 255.246 161.242 253.071 163.283 253.052C165.613 253.033 165.208 255.342 165.035 256.792C163.63 268.369 168.578 279.348 168.174 290.819C168.077 293.65 171.129 294.269 172.323 296.375C176.521 303.768 179.659 311.664 183.741 320.091C184.406 314.94 185.782 310.91 188.016 307.228C189.268 305.17 188.68 303.527 187.323 301.971C174.287 287.011 170.648 268.195 166.075 249.776C165.709 248.326 164.949 246.268 167.124 245.659C169.146 245.098 169.743 247.138 170.407 248.529C173.45 254.849 174.143 261.827 175.722 268.543C178.735 281.358 184.454 292.79 193.407 302.377C203.641 313.336 215.262 321.057 230.916 315.645C234.902 332.18 222.376 340.849 213.577 352.765C220.528 352.745 226.622 353.064 232.668 353.683C237.116 354.147 241.65 354.06 246.012 352.62C247.052 352.282 248.39 351.673 249.112 352.832C250.017 354.292 248.592 355.132 247.687 355.983C240.736 362.467 232.707 366.98 223.483 369.3C222.242 369.609 220.99 369.889 219.748 370.237C219.488 370.314 219.286 370.604 219.045 370.807C237.713 373.368 252.886 384.424 252.818 395.586C252.366 395.344 251.769 395.228 251.625 394.919C245.299 381.148 233.005 377.263 219.536 375.32C216.686 374.914 213.818 374.596 210.958 374.267C210.034 374.161 208.917 373.697 208.311 374.683C207.627 375.794 208.686 376.432 209.408 377.012C215.059 381.573 218.131 389.072 225.804 391.401C216.6 390.445 211.825 382.733 204.893 378.152C209.254 388.251 214.029 397.953 225.64 403.172C220.056 403.259 213.336 398.582 209.447 392.542C207.531 389.565 205.875 386.424 203.92 383.477C203.179 382.356 202.64 379.92 200.455 381.708C198.828 383.042 198.134 384.588 199.877 386.637C202.823 390.097 204.72 394.242 206.52 398.359C211.43 409.569 220.769 415.039 231.83 418.054C239.966 420.267 247.86 414.556 251.268 404.68C251.817 403.075 251.596 401.133 253.184 399.848C254.802 413.773 241.198 424.916 227.768 420.722C216.455 417.185 207.232 410.942 201.543 399.809C204.267 414.769 201.543 429.709 202.89 444.746C197.018 432.918 191.058 421.263 186.812 407.356C184.454 416.47 181.383 423.805 177.897 431.043C176.338 434.29 178.889 438.3 181.604 440.755C193.128 451.211 198.654 464.219 198.933 479.662C198.962 481.102 199.27 482.532 199.444 483.963C199.636 485.499 200.946 487.287 199.607 488.524C197.932 490.07 195.91 488.775 194.206 488.06C186.427 484.803 182.471 478.425 180.401 470.588C178.254 462.46 177.84 454.062 176.569 445.8C176.213 443.5 175.702 441.219 175.125 438.204C174.085 439.373 173.546 439.75 173.315 440.272C169.705 448.699 166.171 457.165 162.532 465.591C161.435 468.133 161.897 469.921 163.793 472.047C172.217 481.508 175.462 492.602 173.141 505.146C172.198 510.249 171.149 515.245 173.825 520.212C174.971 522.338 173.661 522.763 171.784 522.222C167.095 520.869 164.198 517.516 162.205 513.312C158.431 505.368 155.437 497.106 152.76 487.819C148.909 494.883 145.491 501.203 142.035 507.485C140.986 509.398 141.91 510.838 142.94 512.346C153.935 528.456 151.152 544.962 144.307 561.564C143.893 562.569 143.479 563.835 142.093 563.787C140.755 563.739 140.466 562.405 139.888 561.477C133.024 550.46 127.767 539.038 131.079 525.121C126.073 530.34 119.574 534.061 117.187 540.613C113.962 549.455 108.907 556.471 101.484 561.999C98.0666 564.55 94.7451 567.237 91.2118 569.991C90.3165 559.032 99.4433 542.294 108.82 539.569C117.302 537.095 121.201 530.572 126.265 524.242C124.099 523.15 122.857 524.513 121.548 525.064C111.256 529.393 100.743 530.06 89.9988 527.093C88.6702 526.726 86.7447 526.697 86.8795 524.774C87.0142 522.85 88.9397 523.111 90.2972 522.908C95.4575 522.135 99.4144 519.111 103.237 515.892C106.433 513.196 109.639 510.529 113.432 508.683C119.517 505.736 125.563 505.591 131.291 509.369C133.929 511.109 135.45 510.993 136.875 508.026C139.985 501.532 144.028 495.482 146.406 488.186C143.21 487.654 140.986 489.461 138.685 490.496C131.012 493.946 123.088 496.381 114.751 497.473C111.285 497.927 108.031 497.434 105.21 495.221C104.459 494.632 103.679 493.907 103.805 492.844C103.949 491.588 105.114 491.481 106.009 491.394C112.219 490.795 116.474 486.862 120.672 482.832C122.992 480.609 125.12 478.145 127.633 476.174C134.381 470.878 141.708 468.404 149.891 472.897C151.961 474.038 153.155 473.835 153.906 471.602C154.82 468.897 156.486 466.442 156.746 463.398C154.561 462.557 152.982 464.016 151.278 464.654C140.649 468.636 130.078 469.737 119.584 464.306C117.938 463.456 115.512 462.837 115.656 460.586C115.781 458.662 118.178 458.972 119.594 458.45C123.83 456.884 127.045 453.898 129.779 450.574C133.64 445.867 139.378 444.389 144.134 441.258C145.251 440.523 145.857 441.519 146.589 442.079C152.24 446.476 155.523 446.698 160.992 442.166C169.714 434.957 176.646 426.153 179.332 415.039C181.614 405.588 182.499 395.798 184.175 385.091C178.899 389.894 177.503 396.214 172.631 401.152C172.699 396.253 176.213 393.827 176.588 389.768C170.686 397.151 161.165 398.195 153.992 403.694C154.493 400.311 154.522 399.954 158.691 398.166C166.229 394.929 172.622 390.261 177.695 383.796C178.398 382.897 180.295 382.307 178.831 380.781C177.551 379.447 176.887 381.128 176.174 381.766C169.473 387.845 161.146 390.908 153.097 394.503C146.493 397.451 139.869 400.369 134.304 405.143C129.664 409.125 126.987 414.015 127.575 420.374C128.133 426.385 129.924 427.699 135.479 426.047C137.289 425.505 139.08 424.906 141.698 424.065L141.708 424.075ZM164.689 346.271C171.004 347.256 174.47 352.243 179.871 353.712C171.486 349.344 168.684 340.617 163.514 333.833C159.74 328.875 157.988 328.924 152.991 332.77C144.567 339.254 135.431 343.594 124.436 340.462C121.221 339.544 120.98 341.255 120.816 343.661C119.748 359.452 130.492 367.435 144.837 367.038C154.657 366.768 164.178 362.11 174.297 364.671C175.577 364.999 176.367 364.014 176.733 362.825C177.204 361.327 176.145 360.795 175.067 360.38C172.814 359.51 170.494 358.998 168.068 358.737C159.788 357.829 151.412 357.239 144.057 352.591C142.103 351.354 140.167 350.184 139.359 347.594C150.238 355.896 163.206 355.219 176.097 356.969C173.315 352.31 168.174 350.735 164.679 346.261L164.689 346.271ZM210.13 328.489C211.565 330.354 210.592 331.533 210.159 332.586C207.454 339.303 204.652 345.971 201.851 352.639C201.263 354.04 199.742 355.403 201.918 356.746C203.795 357.906 204.845 356.688 205.971 355.432C211.103 349.682 216.369 344.038 221.375 338.182C224.918 334.036 228.471 329.803 229.25 324.053C229.838 319.743 228.673 318.612 224.446 318.95C221.577 319.182 218.304 319.975 215.878 318.931C208.985 315.984 204.98 318.042 202.736 324.836C202.698 324.952 202.188 324.903 201.899 324.932C201.225 323.947 201.687 322.99 202.111 322.178C204.508 317.588 204.161 313.954 198.828 311.838C198.25 311.616 197.807 311.074 197.287 310.688C190.606 305.672 188.719 306.484 187.438 315.008C187.053 317.578 186.928 320.216 187.717 322.681C190.452 331.137 190.952 339.68 189.422 348.426C189.142 350.03 188.594 352.504 190.798 352.987C193.051 353.48 193.205 350.861 193.937 349.392C195.564 346.116 197.056 342.772 198.606 339.457C199.049 344.212 197.345 348.145 195.516 352.04C195.188 352.745 194.64 353.625 195.429 354.243C196.334 354.958 197.383 354.533 197.923 353.683C199.309 351.528 200.715 349.353 201.793 347.044C204.614 341.013 207.261 334.906 210.121 328.489H210.13ZM88.1695 357.326C87.9866 356.949 87.8037 356.572 87.6208 356.195C88.2947 355.587 88.9012 354.852 89.6618 354.369C96.7861 349.837 104.401 346.58 112.912 346.058C116.185 345.855 118.226 344.541 118.14 341.197C118.053 337.612 115.011 338.704 113.037 338.588C96.7765 337.67 87.2164 347.71 78.9368 359.79C77.9741 361.192 77.9837 362.506 80.0825 362.061C86.013 360.805 91.4718 363.038 97.0942 364.043C104.671 365.386 111.362 363.859 116.879 358.119C119.353 355.538 119.247 352.803 117.35 350.31C115.781 348.242 113.191 349.179 111.035 349.479C102.957 350.619 95.419 353.547 88.1695 357.336V357.326ZM77.9067 397.393C70.5609 403.964 66.6137 412.836 61.4341 422.394C66.4211 420.673 70.3106 419.378 74.1616 417.996C84.54 414.276 91.0482 406.67 95.1687 396.726C95.6212 395.634 96.738 394.368 95.4575 393.208C94.5429 392.387 93.3299 392.86 92.2323 393.063C85.445 394.281 80.9297 398.736 76.7899 403.819C74.8548 406.206 73.5551 409.212 69.8389 411.464C71.8221 405.559 74.8644 401.548 77.9067 397.393ZM162.003 452.748C155.552 456.121 150.19 459.126 143.922 459.242C141.977 459.281 138.598 460.199 138.463 458.063C138.309 455.551 141.669 456.401 143.527 456.304C152.799 455.831 158.989 449.82 165.536 444.321C163.62 444.563 162.003 445.432 160.327 446.177C156.938 447.684 153.482 449.182 149.708 447.8C144.009 445.722 139.243 447.655 135.132 451.366C131.021 455.067 127.247 459.155 122 461.736C131.32 467.099 156.996 461.716 162.012 452.738L162.003 452.748ZM136.403 524.01C130.742 534.467 133.996 553.06 142.314 558.491C148.322 543.348 149.005 528.707 138.877 514.153C139.089 518.85 139.137 522.85 139.494 526.832C139.83 530.63 141.053 534.438 138.858 539.357C137.77 533.558 137.992 528.765 136.413 524L136.403 524.01ZM168.665 516.994C168.289 509.369 170.918 501.996 169.647 494.496C168.347 486.794 164.785 480.252 158.864 473.323C158.864 484.398 163.601 492.689 166.229 501.58C163.177 499.174 161.974 495.675 160.433 492.438C158.874 489.172 157.68 485.741 156.322 482.378C158.229 494.767 160.25 507.069 168.665 516.994ZM186.735 470.617C186.177 467.215 185.725 463.794 185.041 460.412C184.078 455.657 183.019 453.599 180.564 451.231C180.564 461.165 182.981 470.192 187.178 478.783C188.709 481.924 191.463 483.914 194.495 485.49C195.304 485.915 196.305 486.669 197.075 485.78C197.451 485.345 197.21 484.301 197.114 483.547C196.623 479.894 196.151 476.241 195.554 472.608C194.283 464.905 191.838 457.744 185.667 451.125C187.082 458.247 189.267 464.21 186.755 470.617H186.735ZM129.847 486.601C134.381 482.755 140.167 482.001 145.443 479.971C146.926 479.401 149.573 479.266 149.16 477.053C148.851 475.4 146.464 475.797 144.904 475.661C129.866 474.308 122.944 487.219 112.45 493.965C123.416 494.941 132.591 490.602 142.757 484.823C137.327 484.146 133.929 487.094 129.837 486.591L129.847 486.601ZM168.617 296.907C167.856 304.909 166.797 312.92 162.936 319.917C159.971 325.29 159.817 328.837 165.363 332.325C169.242 334.77 170.321 339.902 174.509 343.99C169.57 327.851 172.939 311.963 168.626 296.907H168.617ZM131.657 513.399C126.776 510.316 122.357 509.968 117.649 511.35C112.286 512.926 107.838 516.066 103.67 519.584C101.715 521.237 97.5659 522.358 98.4998 524.88C99.2796 526.987 103.429 525.798 106.086 525.856C113.673 526.03 120.893 524.725 127.151 519.961C123.05 520.319 119.035 521.082 115.001 521.71C113.499 521.942 111.227 522.58 110.958 520.521C110.727 518.714 113.057 519.033 114.356 518.772C120.104 517.632 126.015 517.062 131.657 513.389V513.399ZM239.725 358.708C235.21 360.042 230.579 359.79 225.967 359.829C219.825 359.877 213.798 360.805 208.06 362.98C204.748 364.236 201.918 365.569 200.204 360.902C199.829 359.868 198.442 358.689 197.037 359.462C195.545 360.283 196.324 361.704 196.71 362.902C196.96 363.666 197.306 364.4 197.576 365.154C199.819 371.358 199.28 373.446 194.168 377.717C192.319 379.263 190.846 380.916 190.837 383.738C196.921 380.471 201.273 374.422 202.236 368.111C202.525 366.246 203.959 366.439 205.162 366.41C208.532 366.343 211.902 366.41 215.262 366.381C224.119 366.314 232.302 363.985 239.715 358.727L239.725 358.708ZM174.124 309.393C176.107 320.081 178.071 330.779 180.093 341.458C180.632 344.309 181.662 347.015 183.183 349.498C183.664 350.281 184.203 351.363 185.378 350.774C186.177 350.368 186.004 349.402 185.936 348.609C185.705 345.903 185.349 343.207 185.243 340.491C184.781 328.943 179.823 318.979 174.114 309.383L174.124 309.393ZM94.7932 563.468C101.937 560.753 110.881 550.499 111.959 544.16C107.222 546.257 105.239 551.224 100.685 555.022C101.609 549.175 105.903 546.885 107.81 543.106C99.6166 547.262 97.7007 555.321 94.7932 563.468ZM194.794 365.734C193.292 361.54 191.742 357.829 187.814 355.548C185.946 354.466 184.454 354.263 183.231 355.828C182.105 357.278 181.845 359.752 183.279 360.66C186.466 362.68 189.739 364.535 192.753 366.864C193.706 367.599 194.967 367.183 194.794 365.734Z" fill="#CB6EE6"/>
<path d="M141.053 188.661C131.859 181.297 124.937 172.251 120.749 161.167C118.236 154.518 118.583 147.637 119.526 140.699C119.777 143.994 119.699 147.357 120.335 150.585C122.183 160.085 126.217 168.521 133.207 175.383C136.519 178.639 139.821 181.915 143.075 185.23C143.922 186.1 145.482 186.95 144.818 188.352C143.903 190.275 142.295 188.555 141.005 188.622L141.053 188.661Z" fill="#CB6EE6"/>
<path d="M103.487 92.978C105.47 97.1528 104.941 101.279 102.534 104.932C95.2457 116.007 89.9892 127.73 89.7773 141.279C89.7677 142.042 89.5848 142.912 87.9481 143.337C87.2068 138.708 87.7748 134.175 88.4199 129.749C89.1612 124.637 90.6631 119.651 93.3299 115.186C97.5371 108.141 101.273 100.912 103.468 92.9587L103.487 92.9683V92.978Z" fill="#CB6EE6"/>
<path d="M275.058 249.65C278.37 245.669 280.892 241.687 285.773 240.112C281.98 244.316 278.976 248.974 276.252 253.873C275.202 255.758 273.816 253.69 273.094 252.54C268.501 245.176 273.392 231.434 281.518 228.815C283 228.341 284.955 227.442 285.677 229.501C286.293 231.26 284.271 231.704 283.049 232.342C276.666 235.647 273.373 242.296 275.058 249.65Z" fill="#CB6EE6"/>
</svg>
