<svg width="425" height="369" viewBox="0 0 425 369" fill="none" xmlns="http://www.w3.org/2000/svg">
<path d="M293.227 47.0325C293.236 48.669 292.424 49.6015 291.502 50.3877C276.939 62.8486 266.467 78.9024 254.032 93.2284C241.177 108.039 229.006 123.462 215.822 137.961C209.714 144.672 203.826 151.62 197.827 158.394C181.968 176.304 167.351 195.302 151.839 213.531C136.062 232.072 122.093 252.002 107.074 271.1C83.5188 301.059 62.0631 332.353 43.1639 365.439C42.6343 366.363 42.0318 367.24 41.42 368.109C40.9544 368.767 40.3244 369.261 39.5027 368.84C38.6902 368.42 38.681 367.542 38.9275 366.847C40.0962 363.556 41.1461 360.201 42.5978 357.038C50.0479 340.801 59.8628 325.954 69.9515 311.29C84.3587 290.354 99.9163 270.296 115.255 250.046C160.933 189.743 211.604 133.619 259.638 75.2912C266.796 66.5969 273.972 57.9301 281.942 49.958C284.006 47.8919 286.252 46.0543 288.945 44.9572C291.127 44.0613 292.825 44.6647 293.245 47.0234L293.227 47.0325Z" fill="#E5A230"/>
<path d="M337.207 49.2267C337.179 50.5523 336.449 51.5122 335.581 52.3899C321.421 66.7615 311.387 84.397 298.386 99.6828C285.375 114.978 272.52 130.447 257.419 143.749C253.374 147.314 250.571 151.794 246.709 155.469C238.027 163.724 229.581 172.236 222.095 181.68C217.393 187.613 212.116 193.135 206.72 198.447C199.607 205.45 193.856 213.659 186.99 220.763C177.723 230.344 170.099 241.15 162.092 251.618C136.236 285.444 111.521 320.121 87.6638 355.401C85.3722 358.784 83.6283 362.541 81.6197 366.125C80.7432 367.688 79.6111 369.069 77.6481 368.219C75.6852 367.368 75.9317 365.613 76.4886 363.894C78.1959 358.628 81.0993 353.975 84.0483 349.385C94.6757 332.875 106.846 317.452 118.204 301.453C133.433 279.996 148.671 258.539 164.895 237.813C184.333 213.001 205.222 189.46 227.18 166.842C243.605 149.92 259.674 132.659 275.853 115.499C292.478 97.8635 307.023 78.5459 321.576 59.2192C324.872 54.8492 328.296 50.5523 332.897 47.4165C333.911 46.7217 335.015 46.0452 336.257 46.804C337.124 47.3342 337.261 48.2667 337.188 49.2175L337.207 49.2267Z" fill="#E5A230"/>
<path d="M25.4517 346.113C26.2003 343.763 26.9673 340.975 27.9624 338.278C38.3616 310.202 54.6039 285.408 71.6224 261.117C84.9797 242.064 99.2134 223.643 114.059 205.715C150.616 161.558 187.3 117.501 223.894 73.3805C230.495 65.4268 236.429 56.9153 243.569 49.4004C245.221 47.6633 247.239 44.171 249.686 46.292C252.197 48.477 249.412 51.3294 247.75 53.359C235.215 68.6448 222.405 83.7113 210.016 99.116C178.188 138.693 144.206 176.505 112.945 216.539C83.5645 254.16 54.3026 291.926 34.6548 335.983C32.9292 339.859 30.8384 343.58 28.8754 347.347C28.3459 348.371 27.9807 350.007 26.5199 349.687C24.8856 349.331 25.8534 347.658 25.4608 346.103L25.4517 346.113Z" fill="#E5A230"/>
<path d="M0.0152225 322.196C0.526506 320.432 1.06518 318.21 1.81384 316.071C5.96802 304.223 11.8387 293.298 19.2157 283.131C27.798 271.32 36.2707 259.426 44.6977 247.504C77.1095 201.656 110.809 156.84 148.379 115.024C173.085 87.5328 197.352 59.6489 221.848 31.9661C223.072 30.5765 224.396 28.0898 226.559 29.7994C228.961 31.701 227.765 34.1785 226.185 36.2629C218.79 45.9629 210.445 54.8126 202.264 63.836C189.081 78.3631 176.125 93.1187 162.978 107.664C145.941 126.515 129.297 145.705 113.465 165.553C99.542 183.005 85.8469 200.668 73.074 219.026C66.0438 229.128 58.1828 238.645 50.9701 248.629C41.0001 262.433 31.2126 276.375 21.4983 290.354C16.3672 297.732 12.3591 305.768 8.66139 313.959C7.16406 317.278 5.53891 320.551 3.78594 323.741C3.20161 324.811 2.85467 326.813 1.11083 326.292C-0.532581 325.798 0.188694 323.97 0.00609243 322.206L0.0152225 322.196Z" fill="#E5A230"/>
<path d="M115.145 364.095C116.278 358.784 118.706 353.746 121.491 348.837C130.027 333.807 141.12 320.67 151.912 307.285C175.303 278.277 198.457 249.058 221.885 220.077C234.603 204.353 248.033 189.231 261.235 173.909C288.242 142.56 316.235 112.116 344.109 81.5628C344.419 81.2246 344.648 80.804 344.995 80.5206C346.757 79.0762 348.373 75.593 350.637 77.2386C353.44 79.2773 350.975 82.4771 349.496 84.4335C346.565 88.2916 343.059 91.7199 339.736 95.2762C302.01 135.612 265.171 176.734 229.664 219.044C223.811 226.011 218.297 233.306 211.568 239.532C208.089 242.759 206.766 247.513 203.588 251.106C179.75 278.131 157.828 306.718 135.916 335.306C128.959 344.375 123.134 354.176 118.825 364.836C118.377 365.951 118.021 367.816 116.104 367.176C114.881 366.765 115.209 365.421 115.145 364.104V364.095Z" fill="#E5A230"/>
<path d="M152.542 359.753C150.899 359.89 150.689 358.875 150.972 358.007C151.392 356.727 152.095 355.529 152.779 354.359C173.587 318.219 198.612 285.289 226.943 254.699C260.478 218.477 293.474 181.753 324.507 143.31C331.948 134.085 339.955 125.29 349.185 117.748C350.445 116.724 351.833 114.411 353.686 116.614C355.229 118.443 354.901 120.564 353.02 122.282C325.538 147.259 304.987 178.361 279.833 205.404C265.956 220.324 251.868 235.061 238.319 250.274C214.042 277.518 190.039 304.991 170.82 336.257C166.228 343.726 160.376 350.428 155.053 357.44C154.331 358.381 153.291 359.085 152.551 359.753H152.542Z" fill="#E5A230"/>
<path d="M191.254 24.762C191.345 27.2304 190.176 29.0314 189.044 30.8416C183.511 39.6638 176.381 47.1971 169.314 54.7211C130.429 96.1356 95.1413 140.585 60.438 185.446C43.2735 207.644 26.675 230.435 13.0438 255.147C12.6786 255.814 12.3591 256.537 11.8661 257.094C10.6426 258.466 9.21835 260.13 7.26452 259.106C4.93635 257.881 6.34238 255.833 7.08191 254.324C11.6926 244.862 17.4719 236.094 23.5069 227.519C48.0211 192.678 74.1148 159.044 100.528 125.629C122.906 97.315 147.137 70.647 171.204 43.8236C177.175 37.168 183.447 30.6679 187.054 22.2387C187.474 21.2605 188.031 19.88 189.208 20.3097C191.263 21.0593 190.87 23.2626 191.254 24.7711V24.762Z" fill="#E5A230"/>
<path d="M368.979 153.348C368.915 155.03 368.066 155.963 367.162 156.74C346.465 174.357 330.094 196.106 311.396 215.625C293.748 234.047 275.971 252.349 258.925 271.365C237.086 295.72 215.841 320.532 195.499 346.14C194.184 347.795 193.016 350.062 190.468 347.959C188.177 346.076 189.455 344.247 190.779 342.41C201.625 327.325 213.969 313.465 225.893 299.249C251.119 269.153 278.519 241.068 305.544 212.635C317.897 199.644 329.355 185.803 341.388 172.501C348.135 165.05 355.494 158.212 364.04 152.799C365.93 151.602 367.829 150.596 368.998 153.339L368.979 153.348Z" fill="#E5A230"/>
<path d="M393.804 172.501C393.941 174.064 392.955 175.033 391.951 175.984C370.988 195.878 351.139 216.887 330.396 237.018C316.153 250.841 302.375 265.267 289.739 280.654C270.95 303.546 252.279 326.539 233.553 349.486C233.069 350.071 232.503 350.583 231.983 351.141C230.732 352.457 229.472 353.39 227.719 351.799C226.121 350.345 226.943 349.029 227.883 347.804C232.238 342.136 236.612 336.486 241.031 330.863C272.447 290.875 306.402 253.163 342.155 217.051C356.27 202.789 370.267 188.418 384.336 174.101C385.724 172.693 387.185 171.367 388.664 170.051C389.622 169.201 390.718 168.661 391.96 169.502C393 170.215 393.722 171.166 393.795 172.492L393.804 172.501Z" fill="#E5A230"/>
<path d="M412.84 196.636C411.918 199.544 409.918 201.774 407.663 203.859C386.427 223.496 366.258 244.222 345.88 264.728C325.064 285.682 305.315 307.587 287.092 330.845C284.563 334.072 282.152 337.409 279.687 340.691C278.847 341.816 277.925 343.086 276.355 342.117C274.839 341.176 273.871 339.621 274.739 337.848C275.798 335.681 277.049 333.551 278.509 331.64C299.335 304.387 322.179 278.953 346.784 255.065C359.667 242.558 372.029 229.53 384.847 216.969C391.576 210.377 398.022 203.447 405.573 197.734C407.024 196.636 408.503 195.521 410.119 194.707C411.799 193.857 412.657 194.799 412.84 196.655V196.636Z" fill="#E5A230"/>
<path d="M163.452 13.645C163.242 15.2723 161.937 17.1556 160.613 19.0115C147.411 37.616 133.606 55.736 118.852 73.1611C96.5382 99.5182 77.0547 128.06 55.9277 155.332C48.7606 164.575 41.2009 173.534 34.8373 183.389C33.7873 185.008 32.363 186.553 30.4457 185.602C28.2454 184.514 29.1857 182.347 30.044 180.802C31.7422 177.758 33.4495 174.658 35.6316 171.962C57.9728 144.27 78.552 115.225 100.446 87.2036C119.537 62.7755 139.659 39.161 157.162 13.4987C157.837 12.5113 158.796 11.716 159.682 10.884C160.366 10.2349 161.197 9.74124 162.147 10.2624C163.151 10.8109 163.662 11.7251 163.462 13.645H163.452Z" fill="#E5A230"/>
<path d="M140.627 6.87055C140.289 8.97327 139.303 10.6737 138.043 12.2279C103.112 55.1874 68.6733 98.5583 32.9565 140.887C31.4044 142.734 29.4414 144.233 27.6428 145.879C26.8576 146.601 25.9537 147.497 24.8581 146.674C23.5616 145.696 24.2281 144.416 24.8764 143.401C26.4376 140.978 27.9715 138.501 29.7884 136.27C48.8063 112.912 68.0981 89.7726 86.8786 66.2313C102.436 46.7308 117.775 27.0475 133.844 7.95848C134.811 6.80656 135.843 5.56321 137.121 4.85926C139.13 3.75304 140.189 4.98725 140.609 6.87055H140.627Z" fill="#E5A230"/>
<path d="M421.011 234.22C421.03 235.729 420.226 236.488 419.377 237.118C405.043 247.778 393.43 261.373 380.346 273.386C365.017 287.465 349.742 301.59 334.805 316.089C328.898 321.831 323.594 328.047 318.262 334.282C317.111 335.626 315.788 338.177 313.542 336.641C311.168 335.014 312.756 332.783 313.87 331.009C321.375 319.061 331.035 308.931 341.489 299.633C357.731 285.188 372.86 269.573 388.819 254.845C395.183 248.976 401.61 243.18 408.12 237.475C410.74 235.18 413.561 233.014 417.049 232.172C418.985 231.706 420.747 231.971 421.002 234.239L421.011 234.22Z" fill="#E5A230"/>
<path d="M115.374 1.94288C115.045 3.99989 113.621 5.59064 112.26 7.22711C99.2408 22.8787 85.9565 38.3199 73.284 54.2366C57.489 74.0845 42.1961 94.3346 26.6568 114.384C25.1686 116.303 23.4886 118.068 21.8087 119.823C21.48 120.171 20.6218 120.39 20.2201 120.207C19.4258 119.851 19.3801 119.01 19.8092 118.278C20.4301 117.236 21.1148 116.23 21.8087 115.234C44.1682 83.5559 68.3355 53.2858 93.1054 23.4912C99.2225 16.1317 105.385 8.80872 111.557 1.49491C112.215 0.717817 112.908 -0.251263 114.187 0.0595743C115.063 0.269846 115.31 0.973801 115.374 1.94288Z" fill="#E5A231"/>
<path d="M410.074 273.596C410.101 275.342 409.298 276.43 408.257 277.363C393.375 290.619 380.821 306.207 366.076 319.6C364.533 320.999 363.063 324.025 360.561 321.73C358.315 319.673 359.776 317.15 361.52 315.303C374.156 301.955 386.838 288.644 399.547 275.361C401.464 273.358 403.856 271.978 406.604 271.411C408.522 271.018 409.918 271.594 410.074 273.596Z" fill="#E5A230"/>
<path d="M424.006 295.446C424.097 296.196 423.166 297.156 422.189 298.161C413.068 307.496 404.002 316.885 394.854 326.182C393.01 328.047 390.645 331.284 388.134 329.154C385.203 326.667 388.445 323.933 390.106 321.822C396.862 313.219 404.404 305.301 411.991 297.448C414.237 295.117 417.076 293.599 420.089 292.511C421.998 291.817 423.778 291.926 424.006 295.455V295.446Z" fill="#E5A231"/>
<path d="M42.1231 65.6462C40.708 66.8072 38.7815 65.1433 39.731 63.58C39.731 63.5709 39.7402 63.5617 39.7493 63.5526C48.3316 49.3455 58.3564 36.1989 69.349 23.7929C70.5724 22.4032 71.8597 20.1268 74.1423 21.9279C76.6439 23.9026 74.7996 26.4167 73.421 28.108C71.1293 30.9147 68.7829 33.6757 66.2904 36.3178C58.8037 44.235 52.0566 52.7556 45.6291 61.5413C44.57 62.9857 43.5383 64.4942 42.1231 65.6553V65.6462Z" fill="#E5A232"/>
</svg>
